grf
version=1
nRows=52
nColumns=19
inDegrees=yes
endheader
time	ground_force_1_vx	ground_force_1_vy	ground_force_1_vz	ground_force_1_px	ground_force_1_py	ground_force_1_pz	ground_moment_1_mx	ground_moment_1_my	ground_moment_1_mz	ground_force_2_vx	ground_force_2_vy	ground_force_2_vz	ground_force_2_px	ground_force_2_py	ground_force_2_pz	ground_moment_2_mx	ground_moment_2_my	ground_moment_2_mz
3.275000	14.322394	1250.056139	-415.054785	0.170213	0.000000	-0.729465	0.000000	9.383064	0.000000	-16.353092	1304.164887	453.002754	0.181585	0.000000	-1.571536	-0.000000	-8.822837	-0.000000
3.276000	14.706233	1251.131145	-415.112461	0.170083	0.000000	-0.730228	0.000000	9.408204	0.000000	-16.094161	1306.417379	454.206674	0.182266	0.000000	-1.573348	-0.000000	-8.864706	-0.000000
3.277000	15.105405	1252.078765	-415.116519	0.168990	0.000000	-0.727884	0.000000	9.433410	0.000000	-15.829708	1308.619071	455.366631	0.181933	0.000000	-1.573838	-0.000000	-8.906016	-0.000000
3.278000	15.518959	1252.905274	-415.069875	0.169797	0.000000	-0.729618	0.000000	9.458640	0.000000	-15.560443	1310.764770	456.480327	0.181242	0.000000	-1.573320	-0.000000	-8.946808	-0.000000
3.279000	15.945964	1253.618151	-414.975837	0.170156	0.000000	-0.728118	0.000000	9.483897	0.000000	-15.287024	1312.848727	457.545958	0.180714	0.000000	-1.571087	-0.000000	-8.987120	-0.000000
3.280000	16.385467	1254.226129	-414.838112	0.169994	0.000000	-0.729602	0.000000	9.509219	0.000000	-15.010064	1314.865749	458.562257	0.181289	0.000000	-1.572395	-0.000000	-9.027021	-0.000000
3.281000	16.836531	1254.739079	-414.660753	0.169680	0.000000	-0.728358	0.000000	9.534646	0.000000	-14.730136	1316.811810	459.528428	0.181425	0.000000	-1.571773	-0.000000	-9.066605	-0.000000
3.282000	17.298264	1255.167859	-414.448075	0.169611	0.000000	-0.728820	0.000000	9.560210	0.000000	-14.447771	1318.683874	460.444013	0.181735	0.000000	-1.572549	-0.000000	-9.105983	-0.000000
3.283000	17.769828	1255.524327	-414.204591	0.169627	0.000000	-0.728977	0.000000	9.585954	0.000000	-14.163429	1320.479984	461.308725	0.181323	0.000000	-1.572127	-0.000000	-9.145266	-0.000000
3.284000	18.250495	1255.821411	-413.934979	0.169860	0.000000	-0.729905	0.000000	9.611943	0.000000	-13.877452	1322.199683	462.122350	0.180623	0.000000	-1.571968	-0.000000	-9.184577	-0.000000
3.285000	18.739717	1256.073020	-413.644031	0.169279	0.000000	-0.728957	0.000000	9.638250	0.000000	-13.590014	1323.844054	462.884801	0.181102	0.000000	-1.571599	-0.000000	-9.224049	-0.000000
3.286000	19.237098	1256.293666	-413.336599	0.169219	0.000000	-0.729132	0.000000	9.664943	0.000000	-13.301083	1325.415509	463.596222	0.181604	0.000000	-1.572722	-0.000000	-9.263810	-0.000000
3.287000	19.742312	1256.497813	-413.017547	0.170066	0.000000	-0.728743	0.000000	9.692092	0.000000	-13.010422	1326.917716	464.257047	0.180623	0.000000	-1.571804	-0.000000	-9.303965	-0.000000
3.288000	20.255060	1256.699300	-412.691680	0.169012	0.000000	-0.728647	0.000000	9.719755	0.000000	-12.717637	1328.355508	464.868007	0.180549	0.000000	-1.573111	-0.000000	-9.344592	-0.000000
3.289000	20.775057	1256.911102	-412.363700	0.169210	0.000000	-0.729800	0.000000	9.747966	0.000000	-12.422243	1329.734670	465.430075	0.180500	0.000000	-1.571949	-0.000000	-9.385762	-0.000000
3.290000	21.302013	1257.145293	-412.038180	0.169467	0.000000	-0.728258	0.000000	9.776747	0.000000	-12.123673	1331.061795	465.944415	0.180796	0.000000	-1.572458	-0.000000	-9.427561	-0.000000
3.291000	21.835606	1257.413076	-411.719510	0.169208	0.000000	-0.730895	0.000000	9.806111	0.000000	-11.821260	1332.343830	466.412398	0.179561	0.000000	-1.573266	0.000000	-9.470086	-0.000000
3.292000	22.375469	1257.724874	-411.411793	0.168646	0.000000	-0.730070	0.000000	9.836050	0.000000	-11.514223	1333.587421	466.835602	0.180982	0.000000	-1.572561	0.000000	-9.513453	-0.000000
3.293000	22.921205	1258.090412	-411.118787	0.168300	0.000000	-0.730989	0.000000	9.866532	0.000000	-11.201686	1334.798818	467.215801	0.180574	0.000000	-1.572520	0.000000	-9.557796	-0.000000
3.294000	23.472379	1258.518699	-410.843906	0.168607	0.000000	-0.728369	0.000000	9.897522	0.000000	-10.882695	1335.984167	467.554984	0.180185	0.000000	-1.571773	0.000000	-9.603238	-0.000000
3.295000	24.028463	1259.017871	-410.590234	0.168385	0.000000	-0.730331	0.000000	9.929007	0.000000	-10.556234	1337.149427	467.855402	0.180548	0.000000	-1.572101	0.000000	-9.649887	-0.000000
3.296000	24.588811	1259.594780	-410.360465	0.168410	0.000000	-0.729837	0.000000	9.961000	0.000000	-10.221249	1338.300088	468.119552	0.179847	0.000000	-1.571642	0.000000	-9.697834	-0.000000
3.297000	25.152638	1260.254500	-410.156714	0.168341	0.000000	-0.731162	0.000000	9.993538	0.000000	-9.876691	1339.441049	468.350087	0.179720	0.000000	-1.571463	0.000000	-9.747154	-0.000000
3.298000	25.719014	1261.000091	-409.980336	0.168352	0.000000	-0.730811	0.000000	10.026660	0.000000	-9.521575	1340.576562	468.549716	0.180020	0.000000	-1.571992	0.000000	-9.797924	-0.000000
3.299000	26.286921	1261.832425	-409.831903	0.168332	0.000000	-0.731223	0.000000	10.060387	0.000000	-9.154994	1341.710287	468.721159	0.179596	0.000000	-1.571614	0.000000	-9.850214	-0.000000
3.300000	26.855334	1262.749888	-409.711313	0.167852	0.000000	-0.730474	0.000000	10.094687	0.000000	-8.776033	1342.845502	468.867100	0.179253	0.000000	-1.571491	0.000000	-9.904065	-0.000000
3.301000	27.423256	1263.748565	-409.617931	0.167438	0.000000	-0.730987	0.000000	10.129475	0.000000	-8.383692	1343.985104	468.990123	0.179323	0.000000	-1.571920	0.000000	-9.959467	-0.000000
3.302000	27.989712	1264.822958	-409.550721	0.166538	0.000000	-0.731181	0.000000	10.164636	0.000000	-7.976937	1345.131309	469.092662	0.179678	0.000000	-1.571386	0.000000	-10.016379	-0.000000
3.303000	28.553763	1265.966567	-409.508316	0.166421	0.000000	-0.731291	0.000000	10.200051	0.000000	-7.554803	1346.285383	469.176983	0.179060	0.000000	-1.571225	0.000000	-10.074734	-0.000000
3.304000	29.114533	1267.172402	-409.489090	0.166968	0.000000	-0.732141	0.000000	10.235620	0.000000	-7.116429	1347.447661	469.245168	0.178458	0.000000	-1.571015	0.000000	-10.134428	-0.000000
3.305000	29.671226	1268.433396	-409.491231	0.167293	0.000000	-0.731569	0.000000	10.271262	0.000000	-6.661058	1348.617567	469.299149	0.179472	0.000000	-1.570042	0.000000	-10.195325	-0.000000
3.306000	30.223094	1269.742183	-409.512778	0.165757	0.000000	-0.732140	0.000000	10.306890	0.000000	-6.188085	1349.793168	469.340736	0.179427	0.000000	-1.570483	0.000000	-10.257293	-0.000000
3.307000	30.769391	1271.090880	-409.551685	0.165698	0.000000	-0.731753	0.000000	10.342411	0.000000	-5.697059	1350.970475	469.371574	0.178301	0.000000	-1.570853	0.000000	-10.320186	-0.000000
3.308000	31.309333	1272.471801	-409.605983	0.166647	0.000000	-0.734192	0.000000	10.377756	0.000000	-5.187583	1352.143422	469.393055	0.178311	0.000000	-1.571353	0.000000	-10.383824	-0.000000
3.309000	31.842063	1273.878456	-409.673901	0.165456	0.000000	-0.732120	0.000000	10.412895	0.000000	-4.659282	1353.304716	469.406303	0.178007	0.000000	-1.570845	0.000000	-10.448010	-0.000000
3.310000	32.366639	1275.305773	-409.753878	0.165511	0.000000	-0.733125	0.000000	10.447825	0.000000	-4.111834	1354.446600	469.412217	0.177973	0.000000	-1.571731	0.000000	-10.512567	-0.000000
3.311000	32.882027	1276.749711	-409.844549	0.164919	0.000000	-0.731863	0.000000	10.482558	0.000000	-3.545020	1355.560943	469.411504	0.177329	0.000000	-1.570346	0.000000	-10.577351	-0.000000
3.312000	33.387115	1278.206954	-409.944780	0.164826	0.000000	-0.732375	0.000000	10.517111	0.000000	-2.958779	1356.639085	469.404729	0.177790	0.000000	-1.570712	0.000000	-10.642258	-0.000000
3.313000	33.880699	1279.674969	-410.053721	0.165080	0.000000	-0.732939	0.000000	10.551499	0.000000	-2.353277	1357.671979	469.392468	0.177435	0.000000	-1.571231	0.000000	-10.707237	-0.000000
3.314000	34.361470	1281.152389	-410.170873	0.164620	0.000000	-0.733341	0.000000	10.585727	0.000000	-1.728909	1358.650584	469.375454	0.177240	0.000000	-1.570815	0.000000	-10.772289	-0.000000
3.315000	34.827970	1282.639106	-410.296119	0.164352	0.000000	-0.729122	0.000000	10.619773	0.000000	-1.086281	1359.566376	469.354556	0.177296	0.000000	-1.570636	0.000000	-10.837445	-0.000000
3.316000	35.278515	1284.135523	-410.429720	0.163993	0.000000	-0.732357	0.000000	10.653598	0.000000	-0.426245	1360.411849	469.330682	0.178082	0.000000	-1.571740	0.000000	-10.902740	-0.000000
3.317000	35.711197	1285.641767	-410.572317	0.163626	0.000000	-0.732469	0.000000	10.687153	0.000000	0.250044	1361.180758	469.304751	0.177070	0.000000	-1.570739	0.000000	-10.968180	-0.000000
3.318000	36.123970	1287.157934	-410.724947	0.163732	0.000000	-0.733814	0.000000	10.720380	0.000000	0.941117	1361.868169	469.277726	0.176786	0.000000	-1.570736	0.000000	-11.033733	-0.000000
3.319000	36.514685	1288.684711	-410.889057	0.162152	0.000000	-0.731418	0.000000	10.753204	0.000000	1.645196	1362.470556	469.250615	0.176373	0.000000	-1.570365	0.000000	-11.099327	-0.000000
3.320000	36.881103	1290.223205	-411.066511	0.163434	0.000000	-0.733325	0.000000	10.785545	0.000000	2.360193	1362.985678	469.224354	0.175973	0.000000	-1.570479	0.000000	-11.164861	-0.000000
3.321000	37.220941	1291.774578	-411.259553	0.163854	0.000000	-0.733875	0.000000	10.817320	0.000000	3.083690	1363.412201	469.199724	0.176111	0.000000	-1.570454	0.000000	-11.230200	-0.000000
3.322000	37.531972	1293.340440	-411.470747	0.161945	0.000000	-0.732018	0.000000	10.848425	0.000000	3.812956	1363.749352	469.177467	0.175819	0.000000	-1.570594	0.000000	-11.295182	-0.000000
3.323000	37.812159	1294.923155	-411.702875	0.162380	0.000000	-0.733164	0.000000	10.878707	0.000000	4.545022	1363.996788	469.158423	0.175370	0.000000	-1.571134	0.000000	-11.359642	-0.000000
3.324000	38.059678	1296.525405	-411.958809	0.162118	0.000000	-0.733579	0.000000	10.907966	0.000000	5.276742	1364.155203	469.143565	0.175729	0.000000	-1.570136	0.000000	-11.423429	-0.000000
3.325000	38.272849	1298.149837	-412.241400	0.162482	0.000000	-0.734058	0.000000	10.935996	0.000000	6.004804	1364.227163	469.133989	0.176353	0.000000	-1.571842	0.000000	-11.486409	-0.000000
3.326000	38.450095	1299.799068	-412.553402	0.161824	0.000000	-0.734783	0.000000	10.962603	-0.000000	6.725755	1364.217062	469.130928	0.176277	0.000000	-1.569592	0.000000	-11.548434	-0.000000
